<svg id="Group_2" data-name="Group 2" xmlns="http://www.w3.org/2000/svg" xmlns:xlink="http://www.w3.org/1999/xlink" width="157.828" height="32" viewBox="0 0 157.828 32">
  <defs>
    <clipPath id="clip-path">
      <rect id="Rectangle_2" data-name="Rectangle 2" width="157.828" height="32" fill="none"/>
    </clipPath>
  </defs>
  <g id="Group_1" data-name="Group 1" clip-path="url(#clip-path)">
    <path id="Path_22" data-name="Path 22" d="M523.982,42V29.765h-1.919v1.51a4.777,4.777,0,0,0-3.787-1.792c-2.815,0-5.067,2.457-5.067,7.217,0,4.733,2.124,6.78,4.81,6.78a5.373,5.373,0,0,0,4.043-1.919v.691c0,3.121-1.023,4.3-5.5,4.427l.613,1.459c4.991-.154,6.807-2.1,6.807-6.141m-1.919-2.125a4.564,4.564,0,0,1-3.557,1.946c-2.123,0-3.4-1.766-3.4-5.143,0-3.609,1.1-5.528,3.327-5.528a4.388,4.388,0,0,1,3.633,2.022ZM530.685,26a1.365,1.365,0,0,0-1.33-1.382,1.369,1.369,0,1,0,0,2.738A1.36,1.36,0,0,0,530.685,26m-.409,3.761h-1.919V43.2h1.919Zm12.691,9.928c0-2.405-1.485-3.147-4.017-4.3-2.278-1.023-2.969-1.485-2.969-2.61,0-.973.819-1.664,2.226-1.664a4.862,4.862,0,0,1,3.353,1.2l1.074-1.407a6.611,6.611,0,0,0-4.3-1.434c-2.43,0-4.2,1.383-4.2,3.429,0,2.15,1.125,2.969,3.812,4.121,2.38,1.023,3.172,1.637,3.172,2.738,0,1.3-.87,2.072-2.713,2.072a5.516,5.516,0,0,1-3.659-1.485l-1.125,1.407a7.529,7.529,0,0,0,4.733,1.714C540.691,43.48,542.968,42.33,542.968,39.693Zm9.161-8.315V29.765H548.8V24.546l-1.919,1.074v4.145h-1.664v1.613h1.664v9.057c0,2.227.9,3.045,2.559,3.045a6.066,6.066,0,0,0,2.481-.46l.128-1.664a4.473,4.473,0,0,1-1.893.384c-1.024,0-1.356-.409-1.356-1.612V31.378ZM558.321,26a1.367,1.367,0,0,0-1.331-1.382,1.369,1.369,0,1,0,0,2.738A1.361,1.361,0,0,0,558.321,26m-.41,3.761h-1.919V43.2h1.919ZM571.6,31.071a6.245,6.245,0,0,0-4.248-1.587c-2.815,0-5.783,2.1-5.783,7.063,0,4.682,2.713,6.934,5.655,6.934a5.677,5.677,0,0,0,4.324-1.868L570.4,40.384a4.166,4.166,0,0,1-3.095,1.434c-2.381,0-3.788-2.125-3.788-5.425,0-3.353,1.613-5.246,3.711-5.246A4.469,4.469,0,0,1,570.45,32.5Zm11.54,8.623c0-2.405-1.484-3.147-4.017-4.3-2.278-1.023-2.969-1.485-2.969-2.61,0-.973.819-1.664,2.226-1.664a4.861,4.861,0,0,1,3.352,1.2l1.074-1.407a6.611,6.611,0,0,0-4.3-1.434c-2.431,0-4.2,1.383-4.2,3.429,0,2.15,1.126,2.969,3.813,4.121,2.38,1.023,3.172,1.637,3.172,2.738,0,1.3-.87,2.072-2.713,2.072a5.516,5.516,0,0,1-3.659-1.485L573.8,41.766a7.535,7.535,0,0,0,4.734,1.714C580.864,43.48,583.141,42.33,583.141,39.693Z" transform="translate(-425.313 -20.342)" fill="#fff"/>
    <path id="Path_23" data-name="Path 23" d="M249.723,43.568V34.561c0-3.02-2.2-4.709-5.45-4.709a9.039,9.039,0,0,0-5.04,1.356l1.356,2.457a6.625,6.625,0,0,1,3.684-.9,1.7,1.7,0,0,1,1.919,1.714v.664a5.579,5.579,0,0,0-2.584-.537c-3.044,0-5.449,1.485-5.449,4.452,0,3.25,2.507,4.785,5.015,4.785a4.285,4.285,0,0,0,3.019-1.177v.9h3.532Zm-3.532-3.941a2.889,2.889,0,0,1-2.456,1.228c-1.51,0-2.047-.845-2.047-1.792,0-1.074.716-1.689,2.047-1.689a4.083,4.083,0,0,1,2.456.564Zm17.733,1.662V30.134h-3.53V30.9a4.256,4.256,0,0,0-2.841-1.05c-3.326,0-5.221,2.815-5.221,6.832,0,5.016,2.354,7.165,5.221,7.165a4.145,4.145,0,0,0,2.841-1.125c0,2.073-.743,2.738-3.506,3.122l1.253,2.662C262.85,48,263.924,45.717,263.924,41.29Zm-3.53-1.893a2.475,2.475,0,0,1-2.175,1.126c-1.382,0-2.3-1.152-2.3-3.915,0-2.252.743-3.429,2.1-3.429a2.81,2.81,0,0,1,2.38,1.152Zm15.787-8.6a3.435,3.435,0,0,0-2.483-.947,3.717,3.717,0,0,0-2.763,1.177v-.9h-3.53V43.568h3.53V36.3c0-2.328.9-2.917,2.278-2.917a3.047,3.047,0,0,1,2.047.87Zm6.09-3.787a2.022,2.022,0,1,0-2.022,2.022,2.043,2.043,0,0,0,2.022-2.022m-.257,3.121h-3.532V43.568h3.532Z" transform="translate(-197.369 -20.711)" fill="#b4d567"/>
    <path id="Path_24" data-name="Path 24" d="M42.322,88.494a20.821,20.821,0,0,0-2.4-.872,21.673,21.673,0,0,0-7.207,5.339,11.066,11.066,0,0,0,1.526,2.585,21.709,21.709,0,0,1,8.083-7.051" transform="translate(-27.11 -72.615)" fill="#b4d567"/>
    <path id="Path_25" data-name="Path 25" d="M22.411,77.29a11.243,11.243,0,0,0,.262,4.834,11.1,11.1,0,0,0,1.654,3.465,22.256,22.256,0,0,1,7.83-6.916,20.906,20.906,0,0,0-3.237-.989A21.141,21.141,0,0,0,24.4,77.2q-.622,0-1.188.032-.4.022-.8.06m-.774,5.12a12.31,12.31,0,0,1-.208-5.719l.078-.386.39-.044q.613-.069,1.252-.105t1.247-.037a22.063,22.063,0,0,1,9.271,2.03l1.058.488-1.058.489a21.156,21.156,0,0,0-8.641,7.345l.176.2-.792.729-.044-.049q-.264-.291-.507-.594l-.168-.206,0-.005a12.177,12.177,0,0,1-2.056-4.131M24.6,87.6l-.169-.179.792-.729.153.163.157.159a11.116,11.116,0,0,0,6.032,3.118L31.393,91.2a12.213,12.213,0,0,1-6.618-3.417h0Z" transform="translate(-17.56 -63.082)" fill="#fff"/>
    <path id="Path_26" data-name="Path 26" d="M42.1,25.635a12.255,12.255,0,1,1-8.666-3.589A12.217,12.217,0,0,1,42.1,25.635M44.61,34.3a11.177,11.177,0,1,0-3.274,7.9,11.143,11.143,0,0,0,3.274-7.9" transform="translate(-17.551 -18.27)" fill="#fff"/>
    <path id="Path_27" data-name="Path 27" d="M57.561,76.691A12.254,12.254,0,0,1,36.883,87.779q-.191-.191-.43-.455-.22-.244-.408-.474l-.247-.3.213-.328a22.134,22.134,0,0,1,18.583-10.1q.61,0,1.258.037t1.241.1l.39.044Zm-1.313,5.667a11.243,11.243,0,0,0,.331-5.067q-.394-.037-.785-.06-.573-.033-1.2-.033a21.038,21.038,0,0,0-17.462,9.275l.117.132q.16.178.4.413a11.182,11.182,0,0,0,18.6-4.659" transform="translate(-29.667 -63.082)" fill="#fff"/>
    <path id="Path_28" data-name="Path 28" d="M46.141,123.951l3.065,5.309-.931.535-3.065-5.309Z" transform="translate(-37.467 -102.722)" fill="#fff"/>
    <path id="Path_29" data-name="Path 29" d="M55.666,113.553l4.583,7.938-.931.539-4.583-7.939Z" transform="translate(-45.361 -94.105)" fill="#fff"/>
    <path id="Path_30" data-name="Path 30" d="M65.976,104.538l5.492,9.512-.931.535-5.492-9.512Z" transform="translate(-53.905 -86.634)" fill="#fff"/>
    <path id="Path_31" data-name="Path 31" d="M77.022,96.788l5.971,10.343-.931.535L76.092,97.323Z" transform="translate(-63.06 -80.212)" fill="#fff"/>
    <path id="Path_32" data-name="Path 32" d="M88.789,90.272l6.082,10.534-.931.539L87.859,90.811Z" transform="translate(-72.811 -74.811)" fill="#fff"/>
    <path id="Path_33" data-name="Path 33" d="M101.282,85.027l5.837,10.11-.931.539-5.837-10.11Z" transform="translate(-83.164 -70.465)" fill="#fff"/>
    <path id="Path_34" data-name="Path 34" d="M114.535,81.1l5.224,9.047-.931.539L113.6,81.638Z" transform="translate(-94.148 -67.21)" fill="#fff"/>
    <path id="Path_35" data-name="Path 35" d="M128.612,78.6l4.178,7.236-.931.539-4.178-7.236Z" transform="translate(-105.814 -65.136)" fill="#fff"/>
    <path id="Path_36" data-name="Path 36" d="M143.612,77.707l2.535,4.391-.931.535-2.535-4.391Z" transform="translate(-118.245 -64.398)" fill="#fff"/>
    <path id="Path_37" data-name="Path 37" d="M31.935,19.716v0a2.044,2.044,0,0,0-.311-.255A16,16,0,0,0,20.95.787L20.913.776A16,16,0,0,0,.789,11.055l-.013.036A16,16,0,0,0,19.361,31.644a.538.538,0,0,0-.223-1.053A14.923,14.923,0,0,1,1.8,11.425l0-.006A14.921,14.921,0,0,1,20.58,1.8l0,0A14.922,14.922,0,0,1,30.6,19.117l-.107,0a2.041,2.041,0,0,0-1.448.6v0a2.046,2.046,0,0,0,2.893,2.893h0a2.043,2.043,0,0,0,0-2.893m-.762,2.131A.97.97,0,0,1,29.8,20.476h0a.969.969,0,1,1,1.37,1.371" transform="translate(0 0)" fill="#fff"/>
    <path id="Path_38" data-name="Path 38" d="M123.088,169.448a.538.538,0,1,1,.531.935q-.6.342-1.245.634t-1.294.523a.538.538,0,1,1-.358-1.015q.624-.22,1.205-.485t1.16-.592" transform="translate(-99.749 -140.369)" fill="#b4d567"/>
    <path id="Path_39" data-name="Path 39" d="M145.3,160.921a.537.537,0,1,1,.678.834l-.218.173h0l-.222.171a.538.538,0,0,1-.649-.859l.206-.158h0Z" transform="translate(-119.896 -133.261)" fill="#b4d567"/>
  </g>
</svg>
