<svg id="Help" xmlns="http://www.w3.org/2000/svg" width="40" height="40" viewBox="0 0 40 40">
  <circle id="Ellipse_2" data-name="Ellipse 2" cx="20" cy="20" r="20" fill="rgba(255,255,255,0)"/>
  <g id="help_outline_black_24dp_1_" data-name="help_outline_black_24dp (1)" transform="translate(8 8)">
    <path id="Path_40" data-name="Path 40" d="M0,0H24V24H0Z" fill="none"/>
    <path id="Path_41" data-name="Path 41" d="M11,18h2V16H11ZM12,2A10,10,0,1,0,22,12,10,10,0,0,0,12,2Zm0,18a8,8,0,1,1,8-8A8.011,8.011,0,0,1,12,20ZM12,6a4,4,0,0,0-4,4h2a2,2,0,0,1,4,0c0,2-3,1.75-3,5h2c0-2.25,3-2.5,3-5A4,4,0,0,0,12,6Z" fill="#fff"/>
  </g>
</svg>
