<svg id="System_Updates" data-name="System Updates" xmlns="http://www.w3.org/2000/svg" width="40" height="40" viewBox="0 0 40 40">
  <circle id="Ellipse_4" data-name="Ellipse 4" cx="20" cy="20" r="20" fill="rgba(255,255,255,0)"/>
  <g id="system_update_alt_black_24dp" transform="translate(8 7.5)">
    <path id="Path_44" data-name="Path 44" d="M0,.5H24v24H0Z" fill="none"/>
    <path id="Path_45" data-name="Path 45" d="M12,16.5l4-4H13v-9H11v9H8Zm9-13H15V5.49h6V19.52H3V5.49H9V3.5H3a2.006,2.006,0,0,0-2,2v14a2.006,2.006,0,0,0,2,2H21a2.006,2.006,0,0,0,2-2V5.5A2.006,2.006,0,0,0,21,3.5Z" fill="#fff"/>
  </g>
</svg>
